<svg width="32" height="26" viewBox="0 0 32 26" fill="none" xmlns="http://www.w3.org/2000/svg">
<path d="M16 9.6C13.3488 9.6 11.2 11.7504 11.2 14.4C11.2 17.0496 13.3488 19.2 16 19.2C18.6496 19.2 20.8 17.0496 20.8 14.4C20.8 11.7504 18.6496 9.6 16 9.6ZM28.8 4.8H24.96C24.432 4.8 23.8624 4.3904 23.6976 3.888L22.704 0.9104C22.536 0.4096 21.9696 0 21.44 0H10.56C10.032 0 9.4624 0.4096 9.2976 0.9088L8.3024 3.888C8.136 4.3904 7.568 4.8 7.04 4.8H3.2C1.44 4.8 0 6.24 0 8V22.4C0 24.16 1.44 25.6 3.2 25.6H28.8C30.56 25.6 32 24.16 32 22.4V8C32 6.24 30.56 4.8 28.8 4.8ZM16 22.4C11.5808 22.4 8 18.8192 8 14.4C8 9.9808 11.5808 6.4 16 6.4C20.4176 6.4 24 9.9808 24 14.4C24 18.8192 20.4176 22.4 16 22.4ZM28 9.92C27.3808 9.92 26.88 9.4176 26.88 8.7984C26.88 8.1824 27.3808 7.6784 28 7.6784C28.6192 7.6784 29.12 8.1808 29.12 8.7984C29.12 9.4176 28.6192 9.92 28 9.92Z" fill="black"/>
</svg>
